<?xml version="1.0" standalone="no"?>
<svg xmlns="http://www.w3.org/2000/svg" viewBox="0 0 153.35388235294118 48" width="153.35388235294118" height="48"><rect fill="none" stroke="#000000" stroke-width="3" width="150.35388235294118" height="45" x="1.5" y="1.5"></rect><g fill="#000000" color="#000000" transform="translate(12, 12) scale(0.4705883)"><svg width="44.0" height="51.0" x="0.0" y="0.0" viewBox="0 0 44 51"><path fill="currentColor" fill-rule="evenodd" d="M21.998 0L0 12.571v25.143l4.19 2.395V15.002L21.999 4.827 39.81 15.002v20.28L21.998 45.459l-9.427-5.388V19.865l9.427-5.386 9.43 5.386v10.553l-9.43 5.387-1.045-.597V24.73l5.268-3.012-4.223-2.413-5.236 2.994v15.34l5.236 2.993 13.62-7.784V17.435l-13.62-7.781-13.617 7.78v25.068l13.617 7.784L44 37.714V12.571z"></path></svg></g><path fill="#000000" fill-rule="nonzero" d="M1.25 11.69Q1.99 11.69 2.40 12.14Q2.81 12.60 2.81 13.26Q2.81 13.92 2.59 14.33L2.59 14.33Q3.65 15.19 5.03 15.19Q6.41 15.19 7.10 14.56Q7.80 13.92 7.80 12.82Q7.80 11.71 7.03 10.92Q6.26 10.13 5.17 9.60Q4.08 9.07 3 8.48Q1.92 7.90 1.15 6.91Q0.38 5.93 0.38 4.58L0.38 4.58Q0.38 2.74 1.61 1.69Q2.83 0.65 4.75 0.65Q6.67 0.65 8.08 1.56Q9.48 2.47 9.48 4.02Q9.48 5.57 8.23 5.57L8.23 5.57Q7.49 5.57 7.08 5.11Q6.67 4.66 6.67 3.94Q6.67 3.22 6.96 2.83L6.96 2.83Q6.12 2.06 4.90 2.06Q3.67 2.06 3.06 2.69Q2.45 3.31 2.45 4.25Q2.45 5.18 3 5.84Q3.55 6.50 4.37 6.92Q5.18 7.34 6.14 7.88Q7.10 8.42 7.92 8.95Q8.74 9.48 9.29 10.38Q9.84 11.28 9.84 12.43L9.84 12.43Q9.84 14.33 8.53 15.53Q7.22 16.73 5.18 16.73Q3.14 16.73 1.57 15.78Q0 14.83 0 13.13L0 13.13Q0 11.69 1.25 11.69L1.25 11.69ZM12.10 15.05L12.94 14.98Q13.15 12.62 13.15 10.67Q13.15 8.71 12.96 6.60L12.96 6.60L12.07 6.53Q12.00 6.12 12.00 5.75Q12.00 5.38 12.02 5.18L12.02 5.18Q13.42 5.14 15 4.97L15 4.97L15.12 5.09Q14.90 6.50 14.90 9.84Q14.90 13.18 15.12 14.98L15.12 14.98L16.01 15.05Q16.06 15.43 16.06 15.71Q16.06 15.98 15.98 16.39L15.98 16.39Q15.14 16.37 14.04 16.37Q12.94 16.37 12.12 16.39L12.12 16.39Q12.05 16.03 12.05 15.65Q12.05 15.26 12.10 15.05L12.10 15.05ZM15.36 1.66L15.36 1.66Q15.36 3.14 13.82 3.14L13.82 3.14Q12.62 3.14 12.62 1.92L12.62 1.92Q12.62 0.41 14.16 0.41L14.16 0.41Q15.36 0.41 15.36 1.66ZM27.70 7.97L27.70 7.97L27.67 10.30Q27.67 12.82 27.96 14.98L27.96 14.98L28.80 15.05Q28.85 15.58 28.85 15.78Q28.85 15.98 28.78 16.39L28.78 16.39Q28.10 16.37 26.76 16.37Q25.42 16.37 24.84 16.39L24.84 16.39Q24.77 16.03 24.77 15.71Q24.77 15.38 24.82 15.05L24.82 15.05L25.66 14.98Q25.85 12.17 25.85 10.16Q25.85 8.16 25.45 7.30Q25.06 6.43 24.10 6.43L24.10 6.43Q22.80 6.43 21.24 7.99L21.24 7.99Q21.22 8.62 21.22 10.91Q21.22 13.20 21.43 14.98L21.43 14.98L22.32 15.05Q22.37 15.58 22.37 15.78Q22.37 15.98 22.30 16.39L22.30 16.39Q21.62 16.37 20.33 16.37Q19.03 16.37 18.43 16.39L18.43 16.39Q18.36 16.03 18.36 15.71Q18.36 15.38 18.41 15.05L18.41 15.05L19.25 14.98Q19.46 12.58 19.46 10.57Q19.46 8.57 19.27 6.60L19.27 6.60L18.38 6.53Q18.31 6.12 18.31 5.72Q18.31 5.33 18.34 5.18L18.34 5.18Q19.56 5.16 21.31 4.97L21.31 4.97L21.43 5.09Q21.38 5.38 21.29 6.53L21.29 6.53Q22.03 5.78 23.02 5.34Q24 4.90 24.86 4.90L24.86 4.90Q27.70 4.90 27.70 7.97ZM37.94 9.00Q37.27 9.00 36.90 8.58Q36.53 8.16 36.53 7.55Q36.53 6.94 36.70 6.62L36.70 6.62Q36.17 6.22 35.45 6.22L35.45 6.22Q32.90 6.22 32.90 10.73L32.90 10.73Q32.90 12.79 33.55 13.90Q34.20 15.00 35.39 15.00Q36.58 15.00 38.33 13.51L38.33 13.51Q39.02 14.23 39.22 15.41L39.22 15.41Q37.20 16.73 35.11 16.73Q33.02 16.73 31.98 15.22Q30.94 13.70 30.94 10.75Q30.94 7.80 32.09 6.35Q33.24 4.90 35.35 4.90L35.35 4.90Q37.01 4.90 38.04 5.68Q39.07 6.46 39.07 7.73Q39.07 9.00 37.94 9.00L37.94 9.00ZM41.26 10.68Q41.26 4.90 45.77 4.90Q50.28 4.90 50.28 10.68L50.28 10.68Q50.28 13.34 49.44 14.90L49.44 14.90Q48.48 16.73 45.77 16.73Q43.06 16.73 42.10 14.90L42.10 14.90Q41.26 13.34 41.26 10.68L41.26 10.68ZM43.22 10.62Q43.22 15.00 45.77 15.00Q48.31 15.00 48.31 10.62Q48.31 6.24 45.77 6.24Q43.22 6.24 43.22 10.62ZM58.63 4.90L58.63 4.90Q62.02 4.90 62.02 10.66L62.02 10.66Q62.02 12.86 61.15 14.66L61.15 14.66Q60.67 15.62 59.71 16.18Q58.75 16.73 57.58 16.73Q56.40 16.73 55.13 16.15L55.13 16.15Q55.25 19.15 55.34 19.99L55.34 19.99L56.23 20.06L56.28 20.69Q56.28 21.17 56.21 21.41L56.21 21.41Q55.63 21.38 54.23 21.38Q52.82 21.38 52.34 21.41L52.34 21.41Q52.27 21 52.27 20.69Q52.27 20.38 52.32 20.06L52.32 20.06L53.21 19.99Q53.40 17.38 53.40 13.00Q53.40 8.62 53.21 6.60L53.21 6.60L52.32 6.53Q52.25 6.31 52.25 5.84Q52.25 5.38 52.27 5.18L52.27 5.18Q53.38 5.16 55.22 4.97L55.22 4.97L55.34 5.09Q55.25 5.78 55.22 6.46L55.22 6.46Q56.88 4.90 58.63 4.90ZM57.36 15.00L57.36 15.00Q59.98 15.00 59.98 10.34L59.98 10.34Q59.98 7.51 59.04 6.77L59.04 6.77Q58.61 6.43 57.91 6.43Q57.22 6.43 56.45 6.89Q55.68 7.34 55.15 7.99L55.15 7.99Q55.10 9.98 55.10 14.45L55.10 14.45Q56.50 15.00 57.36 15.00ZM72.53 8.09L72.53 8.09L72.43 11.54Q72.43 13.18 72.62 14.74L72.62 14.74L73.51 14.81Q73.56 15.19 73.56 15.52Q73.56 15.84 73.49 16.20L73.49 16.20Q72.79 16.22 70.78 16.44L70.78 16.44Q70.61 15.98 70.51 15.31L70.51 15.31Q68.64 16.73 67.28 16.73Q65.93 16.73 65.17 15.85Q64.42 14.98 64.42 13.36Q64.42 11.74 65.44 10.80Q66.46 9.86 68.00 9.86Q69.55 9.86 70.66 10.44L70.66 10.44Q70.68 10.18 70.68 9.58L70.68 9.58Q70.68 7.80 70.19 7.02Q69.70 6.24 68.69 6.24Q67.68 6.24 67.22 6.62L67.22 6.62Q67.42 7.01 67.42 7.58Q67.42 8.16 67.04 8.58Q66.67 9.00 66 9.00L66 9.00Q64.87 9.00 64.87 7.67Q64.87 6.34 65.88 5.62Q66.89 4.90 68.71 4.90Q70.54 4.90 71.53 5.75Q72.53 6.60 72.53 8.09ZM70.56 11.95L70.56 11.95Q69.58 11.11 68.45 11.11L68.45 11.11Q66.29 11.11 66.29 13.03L66.29 13.03Q66.29 15.00 67.99 15.00L67.99 15.00Q68.62 15.00 69.32 14.68Q70.03 14.35 70.44 13.87L70.44 13.87Q70.56 12.43 70.56 11.95ZM82.66 5.47L82.66 5.47L82.68 3.96Q82.68 2.52 82.58 1.63L82.58 1.63L81.62 1.56Q81.55 1.27 81.55 0.82Q81.55 0.36 81.58 0.22L81.58 0.22Q83.71 0.12 84.70 0L84.70 0L84.79 0.12Q84.43 3.26 84.43 8.22Q84.43 13.18 84.65 14.76L84.65 14.76L85.54 14.81Q85.58 15.34 85.58 15.59Q85.58 15.84 85.51 16.20L85.51 16.20Q84.58 16.25 82.90 16.44L82.90 16.44Q82.70 16.06 82.61 15.22L82.61 15.22Q80.95 16.73 79.26 16.73Q77.57 16.73 76.67 15.19Q75.77 13.66 75.77 10.84Q75.77 8.02 76.91 6.46Q78.05 4.90 80.18 4.90L80.18 4.90Q81.38 4.90 82.66 5.47ZM80.21 6.31L80.21 6.31Q77.81 6.31 77.81 11.09L77.81 11.09Q77.81 12.89 78.35 13.88Q78.89 14.88 79.85 14.88L79.85 14.88Q80.50 14.88 81.28 14.47Q82.06 14.06 82.63 13.44L82.63 13.44Q82.68 10.46 82.68 7.01L82.68 7.01Q81.14 6.31 80.21 6.31ZM87.62 10.68Q87.62 4.90 92.14 4.90Q96.65 4.90 96.65 10.68L96.65 10.68Q96.65 13.34 95.81 14.90L95.81 14.90Q94.85 16.73 92.14 16.73Q89.42 16.73 88.46 14.90L88.46 14.90Q87.62 13.34 87.62 10.68L87.62 10.68ZM89.59 10.62Q89.59 15.00 92.14 15.00Q94.68 15.00 94.68 10.62Q94.68 6.24 92.14 6.24Q89.59 6.24 89.59 10.62Z" transform="translate(44.705882352941174 15.815999999999999)"></path></svg>